<svg width="26" height="20" viewBox="0 0 26 20" fill="none" xmlns="http://www.w3.org/2000/svg">
<path d="M24.2128 9.78722H21.2766V2.12763C21.2752 0.95316 20.3234 0.00139628 19.149 0H6.38299C5.20852 0.00139628 4.25676 0.95316 4.25531 2.12768V4.68088H1.92083C0.860457 4.68202 0.00114694 5.54133 0 6.60171V18.0792C0.00114694 19.1395 0.860457 19.9989 1.92083 20H8.71742C9.52726 19.9976 10.2483 19.4867 10.5191 18.7234H17.8724C18.1074 18.7234 18.2979 18.5329 18.2979 18.2979V17.4468C18.2979 16.7418 17.7263 16.1702 17.0213 16.1702H15.7447V14.4681H19.149V18.6809C19.149 19.4094 19.7396 20 20.4681 20H24.2128C24.9413 20 25.5319 19.4094 25.5319 18.6809V11.1064C25.532 10.3778 24.9413 9.78722 24.2128 9.78722ZM9.78727 18.0792C9.78682 18.6698 9.30809 19.1485 8.71747 19.149H1.92083C1.33021 19.1485 0.851531 18.6698 0.851032 18.0792V17.8724H9.78722V18.0792H9.78727ZM9.78727 17.0213H0.851082V7.65959H9.78727V17.0213ZM9.78727 6.80851H0.851082V6.60171C0.851531 6.01108 1.33025 5.53241 1.92088 5.53191H8.71747C9.30809 5.53236 9.78677 6.01108 9.78727 6.60171V6.80851V6.80851ZM17.0213 17.0213C17.2563 17.0213 17.4468 17.2118 17.4468 17.4468V17.8723H10.6383V17.0213H17.0213ZM10.6383 16.1702V14.4681H14.8936V16.1702H10.6383ZM19.149 13.617H15.3192H10.6383V12.3404H19.149V13.617ZM19.149 11.1064V11.4894H10.6383V6.60171C10.6371 5.54133 9.77779 4.68202 8.71747 4.68088H5.10639V2.12768C5.10639 1.42266 5.67792 0.851082 6.38299 0.851082H19.149C19.854 0.851082 20.4256 1.42261 20.4256 2.12768V9.79151C19.7154 9.8144 19.1509 10.3958 19.149 11.1064ZM24.6809 18.6809C24.6809 18.9394 24.4713 19.149 24.2128 19.149H20.4681C20.2096 19.149 20 18.9394 20 18.6809V18.2979H24.6809V18.6809ZM24.6809 17.4468H20V12.3404H24.6809V17.4468ZM24.6809 11.4894H20V11.1064C20 10.8479 20.2096 10.6383 20.4681 10.6383H24.2128C24.4713 10.6383 24.6809 10.8479 24.6809 11.1064V11.4894Z" fill="white"/>
</svg>
