<svg width="20" height="20" viewBox="0 0 20 20" fill="none" xmlns="http://www.w3.org/2000/svg">
<g clip-path="url(#clip0)">
<path d="M2.30317 7.32599C2.36023 7.38306 2.43515 7.41175 2.51008 7.41175C2.585 7.41175 2.65992 7.38321 2.71714 7.32599C2.83143 7.2117 2.83143 7.02631 2.71714 6.91202L2.00638 6.20126L2.71714 5.49066C2.83143 5.37622 2.83143 5.19097 2.71714 5.07668C2.60285 4.96239 2.41745 4.96239 2.30317 5.07668L1.3855 5.99435C1.33057 6.04928 1.29974 6.12375 1.29974 6.20126C1.29974 6.27893 1.33057 6.35339 1.3855 6.40833L2.30317 7.32599Z" fill="white"/>
<path d="M5.20785 6.20129L4.49709 6.91205C4.3828 7.02633 4.3828 7.21173 4.49724 7.32602C4.55431 7.38309 4.62923 7.41177 4.70415 7.41177C4.77907 7.41177 4.85399 7.38309 4.91106 7.32602L5.82888 6.4082C5.94317 6.29391 5.94317 6.10852 5.82888 5.99438L4.91106 5.07656C4.79677 4.96227 4.61153 4.96227 4.49724 5.07656C4.3828 5.191 4.3828 5.37624 4.49724 5.49053L5.20785 6.20129Z" fill="white"/>
<path d="M3.17078 7.39143C3.20587 7.40517 3.24219 7.41173 3.27774 7.41173C3.39462 7.41173 3.50495 7.34123 3.55026 7.22603L4.27125 5.39053C4.33045 5.24008 4.25629 5.07025 4.10584 5.01105C3.95554 4.95199 3.78556 5.026 3.7265 5.17645L3.00537 7.01194C2.94632 7.1624 3.02032 7.33238 3.17078 7.39143Z" fill="white"/>
<path d="M1.75813 9.12907H3.73003C3.89162 9.12907 4.02269 8.99799 4.02269 8.83625C4.02269 8.67465 3.89162 8.54358 3.73003 8.54358H1.75813C1.59638 8.54358 1.46546 8.67465 1.46546 8.83625C1.46546 8.99799 1.59638 9.12907 1.75813 9.12907Z" fill="white"/>
<path d="M8.27167 8.54358H4.80486C4.64327 8.54358 4.51219 8.67465 4.51219 8.83625C4.51219 8.99799 4.64327 9.12907 4.80486 9.12907H8.27167C8.43341 9.12907 8.56448 8.99799 8.56448 8.83625C8.56448 8.67465 8.43341 8.54358 8.27167 8.54358Z" fill="white"/>
<path d="M1.75813 10.3636H2.59812C2.75971 10.3636 2.89079 10.2325 2.89079 10.0708C2.89079 9.90915 2.75971 9.77808 2.59812 9.77808H1.75813C1.59638 9.77808 1.46546 9.90915 1.46546 10.0708C1.46546 10.2325 1.59638 10.3636 1.75813 10.3636Z" fill="white"/>
<path d="M7.20081 9.77808C7.03906 9.77808 6.90814 9.90915 6.90814 10.0708C6.90814 10.2325 7.03906 10.3636 7.20081 10.3636H7.71228C7.87402 10.3636 8.00509 10.2325 8.00509 10.0708C8.00509 9.90915 7.87402 9.77808 7.71228 9.77808H7.20081Z" fill="white"/>
<path d="M6.43039 10.0708C6.43039 9.90915 6.29931 9.77808 6.13772 9.77808H3.6252C3.46346 9.77808 3.33253 9.90915 3.33253 10.0708C3.33253 10.2325 3.46346 10.3636 3.6252 10.3636H6.13772C6.29931 10.3636 6.43039 10.2325 6.43039 10.0708Z" fill="white"/>
<path d="M8.34781 10.0708C8.34781 10.2325 8.47888 10.3636 8.64047 10.3636H9.59858C9.76032 10.3636 9.89139 10.2325 9.89139 10.0708C9.89139 9.90915 9.76032 9.77808 9.59858 9.77808H8.64047C8.47888 9.77808 8.34781 9.90915 8.34781 10.0708Z" fill="white"/>
<path d="M6.75372 6.43619H7.76431C7.92605 6.43619 8.05713 6.30512 8.05713 6.14338C8.05713 5.98178 7.92605 5.85071 7.76431 5.85071H6.75372C6.59197 5.85071 6.4609 5.98178 6.4609 6.14338C6.4609 6.30512 6.59197 6.43619 6.75372 6.43619Z" fill="white"/>
<path d="M8.89621 6.43619H15.0625C15.2242 6.43619 15.3551 6.30512 15.3551 6.14338C15.3551 5.98178 15.2242 5.85071 15.0625 5.85071H8.89621C8.73447 5.85071 8.60339 5.98178 8.60339 6.14338C8.60339 6.30512 8.73447 6.43619 8.89621 6.43619Z" fill="white"/>
<path d="M14.1259 7.13843H11.628C11.4664 7.13843 11.3353 7.2695 11.3353 7.43125C11.3353 7.59284 11.4664 7.72391 11.628 7.72391H14.1259C14.2875 7.72391 14.4185 7.59284 14.4185 7.43125C14.4185 7.2695 14.2875 7.13843 14.1259 7.13843Z" fill="white"/>
<path d="M10.6914 7.13843H9.8328C9.67106 7.13843 9.54014 7.2695 9.54014 7.43125C9.54014 7.59284 9.67106 7.72391 9.8328 7.72391H10.6914C10.8531 7.72391 10.9841 7.59284 10.9841 7.43125C10.9841 7.2695 10.8531 7.13843 10.6914 7.13843Z" fill="white"/>
<path d="M6.75372 7.72391H8.85714C9.01873 7.72391 9.14981 7.59284 9.14981 7.43125C9.14981 7.2695 9.01873 7.13843 8.85714 7.13843H6.75372C6.59197 7.13843 6.4609 7.2695 6.4609 7.43125C6.4609 7.59284 6.59197 7.72391 6.75372 7.72391Z" fill="white"/>
<path d="M6.14138 11.0024H4.16963C4.00789 11.0024 3.87682 11.1335 3.87682 11.2951C3.87682 11.4567 4.00789 11.5878 4.16963 11.5878H6.14138C6.30297 11.5878 6.43405 11.4567 6.43405 11.2951C6.43405 11.1335 6.30297 11.0024 6.14138 11.0024Z" fill="white"/>
<path d="M3.27302 11.0024H1.75813C1.59638 11.0024 1.46546 11.1335 1.46546 11.2951C1.46546 11.4567 1.59638 11.5878 1.75813 11.5878H3.27302C3.43477 11.5878 3.56569 11.4567 3.56569 11.2951C3.56569 11.1335 3.43477 11.0024 3.27302 11.0024Z" fill="white"/>
<path d="M9.71577 11.0024H7.13992C6.97818 11.0024 6.84726 11.1335 6.84726 11.2951C6.84726 11.4567 6.97818 11.5878 7.13992 11.5878H9.71577C9.87736 11.5878 10.0084 11.4567 10.0084 11.2951C10.0084 11.1335 9.87736 11.0024 9.71577 11.0024Z" fill="white"/>
<path d="M13.1992 9.49878H11.7907C11.6291 9.49878 11.498 9.62985 11.498 9.79144C11.498 9.95318 11.6291 10.0843 11.7907 10.0843H13.1992C13.3609 10.0843 13.4919 9.95318 13.4919 9.79144C13.4919 9.62985 13.3609 9.49878 13.1992 9.49878Z" fill="white"/>
<path d="M15.6434 10.0843H17.6318C17.7935 10.0843 17.9246 9.95318 17.9246 9.79144C17.9246 9.62985 17.7935 9.49878 17.6318 9.49878H15.6434C15.4816 9.49878 15.3507 9.62985 15.3507 9.79144C15.3507 9.95318 15.4818 10.0843 15.6434 10.0843Z" fill="white"/>
<path d="M14.6491 9.49878H14.1935C14.0317 9.49878 13.9007 9.62985 13.9007 9.79144C13.9007 9.95318 14.0317 10.0843 14.1935 10.0843H14.6491C14.8109 10.0843 14.9418 9.95318 14.9418 9.79144C14.9418 9.62985 14.8109 9.49878 14.6491 9.49878Z" fill="white"/>
<path d="M11.7907 13.2739H13.1992C13.3609 13.2739 13.4919 13.143 13.4919 12.9813C13.4919 12.8197 13.3609 12.6886 13.1992 12.6886H11.7907C11.6291 12.6886 11.498 12.8197 11.498 12.9813C11.498 13.143 11.6291 13.2739 11.7907 13.2739Z" fill="white"/>
<path d="M15.6434 13.2739H17.6318C17.7935 13.2739 17.9246 13.143 17.9246 12.9813C17.9246 12.8197 17.7935 12.6886 17.6318 12.6886H15.6434C15.4816 12.6886 15.3507 12.8197 15.3507 12.9813C15.3507 13.143 15.4818 13.2739 15.6434 13.2739Z" fill="white"/>
<path d="M14.1935 13.2739H14.6491C14.8109 13.2739 14.9419 13.143 14.9419 12.9813C14.9419 12.8197 14.8109 12.6886 14.6491 12.6886H14.1935C14.0317 12.6886 13.9008 12.8197 13.9008 12.9813C13.9008 13.143 14.0317 13.2739 14.1935 13.2739Z" fill="white"/>
<path d="M13.1992 15.8784H11.7907C11.6291 15.8784 11.498 16.0095 11.498 16.1711C11.498 16.3327 11.6291 16.4637 11.7907 16.4637H13.1992C13.3609 16.4637 13.4919 16.3327 13.4919 16.1711C13.4919 16.0095 13.3609 15.8784 13.1992 15.8784Z" fill="white"/>
<path d="M17.6318 15.8784H15.6434C15.4816 15.8784 15.3507 16.0095 15.3507 16.1711C15.3507 16.3327 15.4816 16.4637 15.6434 16.4637H17.6318C17.7935 16.4637 17.9246 16.3327 17.9246 16.1711C17.9246 16.0095 17.7935 15.8784 17.6318 15.8784Z" fill="white"/>
<path d="M14.6491 15.8784H14.1935C14.0317 15.8784 13.9007 16.0095 13.9007 16.1711C13.9007 16.3327 14.0317 16.4637 14.1935 16.4637H14.6491C14.8109 16.4637 14.9418 16.3327 14.9418 16.1711C14.9418 16.0095 14.8109 15.8784 14.6491 15.8784Z" fill="white"/>
<path d="M18.7119 0.0390625H1.28831C0.578013 0.0390625 7.62939e-06 0.616916 7.62939e-06 1.32737V15.4902C7.62939e-06 16.2005 0.578013 16.7783 1.28831 16.7783H2.38985C2.55144 16.7783 2.68251 16.6474 2.68251 16.4857C2.68251 16.3241 2.55144 16.193 2.38985 16.193H1.28831C0.900737 16.193 0.58549 15.8778 0.58549 15.4902V14.3798H11.2494V14.8843H11.0174C10.6998 14.8843 10.4416 15.1424 10.4416 15.46V16.193H4.16949C4.0079 16.193 3.87682 16.3241 3.87682 16.4857C3.87682 16.6474 4.0079 16.7783 4.16949 16.7783H6.98383V17.8282H6.10004C5.51044 17.8282 5.03085 18.3079 5.03085 18.8973V19.5297C5.03085 19.7987 5.24966 20.0175 5.51868 20.0175H14.4591C14.7282 20.0175 14.947 19.7987 14.947 19.5297V18.8973C14.947 18.3079 14.4674 17.8282 13.8778 17.8282H12.994V17.4581H18.4052C18.7226 17.4581 18.9808 17.2 18.9808 16.8824V16.7446C19.5513 16.6122 19.9778 16.1002 19.9778 15.4902L19.9999 1.32722C20.0001 0.616916 19.4222 0.0390625 18.7119 0.0390625ZM11.0271 13.6829V12.2799H18.3955V13.6829H11.0271ZM11.8348 11.6944V11.0786H17.5877V11.6944H11.8348ZM17.5877 14.2683V14.8843H11.8348V14.2683H17.5877ZM7.56916 16.7783H10.4416V16.8826C10.4416 17.2 10.6998 17.4581 11.0174 17.4581H12.4087V17.8282H7.56916V16.7783ZM13.8779 18.4136C14.1447 18.4136 14.3616 18.6306 14.3616 18.8973V19.4322H5.61618V18.8973C5.61618 18.6306 5.83331 18.4136 6.10004 18.4136H13.8779ZM18.3955 16.8726H11.0271V15.4697H18.3955V16.8726ZM19.3925 15.4902C19.3925 15.7737 19.2234 16.018 18.9809 16.1289V15.4598C18.9809 15.1424 18.7226 14.8843 18.4052 14.8843H18.1731V14.3798H19.3925V15.4902ZM19.3925 13.7945H18.9713C18.9773 13.7614 18.9809 12.2701 18.9809 12.2701C18.9809 11.9526 18.7226 11.6944 18.4052 11.6944H18.1731V11.0786H18.4052C18.7226 11.0786 18.9809 10.8202 18.9809 10.5028V9.08025C18.9809 8.76286 18.7226 8.50453 18.4052 8.50453H16.7519C16.5902 8.50453 16.4593 8.6356 16.4593 8.79735C16.4593 8.95894 16.5902 9.09001 16.7519 9.09001H18.3955V10.4931H11.0271V9.09001H14.9306C15.0924 9.09001 15.2233 8.95894 15.2233 8.79735C15.2233 8.6356 15.0924 8.50453 14.9306 8.50453H11.0174C10.6998 8.50453 10.4416 8.76286 10.4416 9.08025V10.5028C10.4416 10.8202 10.6998 11.0786 11.0174 11.0786H11.2494V11.6944H11.0174C10.6998 11.6944 10.4416 11.9527 10.4416 12.2701C10.4416 12.2701 10.4453 13.7614 10.4513 13.7945H0.58549V4.02071H19.3925V13.7945ZM19.3925 3.43523H0.607005V1.32722C0.607005 0.939794 0.922252 0.624545 1.30983 0.624545H18.6897C19.0772 0.624545 19.3925 0.939794 19.3925 1.32737V3.43523Z" fill="white"/>
<path d="M2.15866 1.16248C1.68503 1.16248 1.29974 1.54776 1.29974 2.0214C1.29974 2.49503 1.68503 2.88047 2.15866 2.88047C2.6323 2.88047 3.01773 2.49503 3.01773 2.0214C3.01773 1.54776 2.6323 1.16248 2.15866 1.16248ZM2.15866 2.29499C2.00791 2.29499 1.88507 2.17231 1.88507 2.0214C1.88507 1.87064 2.00791 1.74781 2.15866 1.74781C2.30957 1.74781 2.43225 1.87064 2.43225 2.0214C2.43225 2.17231 2.30957 2.29499 2.15866 2.29499Z" fill="white"/>
<path d="M4.34573 1.16248C3.87209 1.16248 3.48665 1.54776 3.48665 2.0214C3.48665 2.49503 3.87209 2.88047 4.34573 2.88047C4.81936 2.88047 5.20465 2.49503 5.20465 2.0214C5.20465 1.54776 4.81921 1.16248 4.34573 1.16248ZM4.34573 2.29499C4.19482 2.29499 4.07213 2.17231 4.07213 2.0214C4.07213 1.87064 4.19482 1.74781 4.34573 1.74781C4.49649 1.74781 4.61932 1.87064 4.61932 2.0214C4.61932 2.17231 4.49649 2.29499 4.34573 2.29499Z" fill="white"/>
<path d="M6.53262 1.16248C6.05898 1.16248 5.6737 1.54776 5.6737 2.0214C5.6737 2.49503 6.05898 2.88047 6.53262 2.88047C7.00625 2.88047 7.39169 2.49503 7.39169 2.0214C7.39169 1.54776 7.00625 1.16248 6.53262 1.16248ZM6.53262 2.29499C6.38186 2.29499 6.25903 2.17231 6.25903 2.0214C6.25903 1.87064 6.38186 1.74781 6.53262 1.74781C6.68353 1.74781 6.80621 1.87064 6.80621 2.0214C6.80621 2.17231 6.68353 2.29499 6.53262 2.29499Z" fill="white"/>
</g>
<defs>
<clipPath id="clip0">
<rect width="20" height="20" fill="white"/>
</clipPath>
</defs>
</svg>
