<svg width="24" height="24" viewBox="0 0 24 24" fill="none" xmlns="http://www.w3.org/2000/svg">
<path d="M21.5395 11.4456C20.9526 11.2212 20.1542 11.0802 19.304 11.0414C20.826 10.3983 21.6762 8.9583 21.2029 7.82613C20.7267 6.68964 19.0954 6.28683 17.5662 6.92557C17.1749 7.08813 16.7174 7.35283 16.2628 7.67364C17.0166 6.86803 17.6309 5.96027 17.9157 5.21365C18.6753 3.23846 17.6856 1.0144 15.7104 0.254826C13.7352 -0.503311 11.5083 0.487877 10.7516 2.46306C10.5991 2.85292 10.4883 3.34204 10.4192 3.87288C9.71433 2.57671 8.41529 1.88906 7.37087 2.32496C6.23438 2.79969 5.83158 4.43393 6.47175 5.96171C6.51491 6.06385 6.5667 6.17462 6.62136 6.28396C6.13224 5.93726 5.64456 5.65817 5.21442 5.49129C3.2378 4.73172 1.01374 5.72291 0.255603 7.69809C-0.503972 9.67615 0.487216 11.8988 2.4624 12.6584C2.89973 12.8252 3.45647 12.9432 4.06355 13.0137C2.56742 13.6654 1.73591 15.0867 2.20489 16.2102C2.67963 17.3467 4.31243 17.751 5.84165 17.1108C5.86754 17.0993 5.89344 17.0863 5.92077 17.0748C5.54961 17.5855 5.25614 18.0948 5.08207 18.5422C4.32394 20.5202 5.31369 22.7443 7.28887 23.5039C9.26405 24.2606 11.4881 23.2708 12.2477 21.2971C12.4966 20.6526 12.6404 19.7549 12.6606 18.8098C12.708 18.9551 12.757 19.0917 12.8087 19.214C13.4475 20.7447 14.8933 21.6021 16.0297 21.1259C17.1662 20.6512 17.569 19.0198 16.9303 17.4906C16.9274 17.4848 16.926 17.4791 16.9217 17.4733C17.559 17.9883 18.2193 18.3969 18.7861 18.6141C20.7613 19.3708 22.9882 18.3825 23.7478 16.4073C24.5016 14.4307 23.5133 12.2066 21.5395 11.4456ZM17.7877 7.45209C18.9242 6.97736 20.1384 7.27802 20.4922 8.12104C20.8461 8.96693 20.2074 10.0416 19.0695 10.5192C18.2365 10.8673 16.4714 11.1708 15.4486 10.9738C15.404 10.8227 15.355 10.6731 15.2874 10.5249C15.1709 10.2645 15.0242 10.0257 14.8573 9.80707C15.3867 8.92665 16.9217 7.81462 17.7877 7.45209ZM11.6679 2.81552C12.2333 1.34672 13.8877 0.608719 15.3579 1.17265C16.8267 1.73801 17.5633 3.39095 17.0008 4.86119C16.5318 6.07968 14.7494 8.26202 13.3151 8.65044C12.9425 8.50514 12.544 8.42889 12.1384 8.41451C11.0407 7.42332 11.1544 4.15341 11.6679 2.81552ZM7.66722 3.03706C8.51455 2.6846 9.58918 3.3219 10.0653 4.45983C10.1617 4.69144 10.2538 4.99354 10.3344 5.33161C10.3459 6.01062 10.4264 6.69396 10.5847 7.31543C10.5847 8.0563 10.4523 8.67058 10.0898 8.82163C9.24391 9.17552 7.47589 6.87953 6.99971 5.74161C6.5221 4.60368 6.82277 3.39095 7.66722 3.03706ZM2.81485 11.7391C1.34462 11.1766 0.608058 9.52078 1.17342 8.05055C1.73735 6.58175 3.39173 5.84375 4.86053 6.40911C6.28761 6.95578 9.02381 9.2978 8.67711 10.781C8.65409 10.8472 8.63107 10.9133 8.61093 10.981C7.96069 12.3836 4.26351 12.2958 2.81485 11.7391ZM11.3313 20.9432C10.7674 22.412 9.11156 23.1486 7.64132 22.5846C6.17252 22.0207 5.43453 20.3649 5.99846 18.8961C6.52786 17.5179 8.73897 14.9026 10.2236 15.0464C10.425 15.1658 10.6379 15.2622 10.8551 15.3384C11.9571 16.3282 11.8463 19.5995 11.3313 20.9432ZM9.55753 13.077C8.95188 11.7132 9.56472 10.1092 10.9299 9.50496C12.2952 8.89644 13.8978 9.51071 14.5048 10.8774C15.0903 12.1966 14.5264 13.733 13.2518 14.3818H13.2489C13.2418 14.3847 13.236 14.3919 13.2274 14.3962C13.1943 14.412 13.1655 14.435 13.131 14.4508C11.7686 15.0579 10.1646 14.4408 9.55753 13.077ZM15.732 20.4181C14.8875 20.7691 13.8143 20.1318 13.3367 18.9925C12.9958 18.1768 12.6965 16.4692 12.8677 15.4391C13.0763 15.3902 13.2806 15.3226 13.482 15.2349C13.7237 15.127 13.9438 14.9961 14.1481 14.845C15.0127 15.4248 16.0542 16.8763 16.4023 17.7107C16.8785 18.8486 16.5778 20.0613 15.732 20.4181ZM22.8271 16.0534C22.2617 17.5222 20.6088 18.2602 19.1385 17.6977C17.7201 17.1511 14.9997 14.8277 15.3191 13.3446C15.3565 13.2539 15.391 13.1633 15.4198 13.0712C16.1391 11.7247 19.7571 11.8168 21.1871 12.3649C22.6544 12.9274 23.3924 14.5861 22.8271 16.0534Z" fill="white"/>
</svg>
