<svg width="28" height="28" viewBox="0 0 28 28" fill="none" xmlns="http://www.w3.org/2000/svg">
<path d="M25.5391 3.33594H2.46094C2.08212 3.33594 1.72747 3.42907 1.40662 3.58258L13.9453 16.1213L16.7556 13.4204C16.7556 13.4204 16.7559 13.4201 16.7559 13.42C16.756 13.4199 16.7562 13.4198 16.7562 13.4198L26.5938 3.5828C26.2729 3.42918 25.918 3.33594 25.5391 3.33594Z" fill="#8C8C87"/>
<path d="M27.7537 4.74292L18.496 14.0001L27.7534 23.2574C27.9069 22.9366 28 22.5819 28 22.2031V5.79686C28 5.41826 27.9071 5.06366 27.7537 4.74292Z" fill="#8C8C87"/>
<path d="M0.246641 4.74268C0.0931328 5.06353 0 5.41818 0 5.797V22.2032C0 22.5818 0.0930234 22.9366 0.246422 23.2573L9.50409 14.0001L0.246641 4.74268Z" fill="#8C8C87"/>
<path d="M17.3361 15.16L14.5253 17.8612C14.3651 18.0214 14.1552 18.1016 13.9454 18.1016C13.7355 18.1016 13.5256 18.0214 13.3654 17.8612L10.6641 15.1599L1.40625 24.4171C1.72716 24.5708 2.08202 24.664 2.46095 24.664H25.5391C25.9179 24.664 26.2725 24.5709 26.5934 24.4174L17.3361 15.16Z" fill="#8C8C87"/>
</svg>
