<svg width="22" height="20" viewBox="0 0 22 20" fill="none" xmlns="http://www.w3.org/2000/svg">
<path d="M18.75 0H2.98867C1.34075 0 0 1.34049 0 2.98867V12.6343C0 14.2787 1.33492 15.6171 2.97805 15.6229V20L9.26839 15.6229H18.75C20.3979 15.6229 21.7387 14.2822 21.7387 12.6343V2.98867C21.7387 1.34049 20.3979 0 18.75 0ZM20.4649 12.6343C20.4649 13.5798 19.6956 14.3492 18.75 14.3492H8.86875L4.2518 17.562V14.3492H2.98867C2.04304 14.3492 1.27375 13.5798 1.27375 12.6343V2.98867C1.27375 2.04291 2.04304 1.27375 2.98867 1.27375H18.75C19.6956 1.27375 20.4649 2.04291 20.4649 2.98867V12.6343Z" fill="white"/>
<path d="M5.81824 4.50073H15.9204V5.77448H5.81824V4.50073Z" fill="white"/>
<path d="M5.81824 7.21802H15.9204V8.49177H5.81824V7.21802Z" fill="white"/>
<path d="M5.81824 9.93542H15.9204V11.2092H5.81824V9.93542Z" fill="white"/>
</svg>
