<svg width="23" height="24" viewBox="0 0 23 24" fill="none" xmlns="http://www.w3.org/2000/svg">
<path d="M21.8086 14.3496C21.9575 13.5995 22.05 12.8011 22.05 12.0027C22.05 5.92096 17.3308 1.00201 11.5077 1.00201C10.7426 1.00201 9.98257 1.0931 9.25852 1.25385C8.28286 0.466176 7.07098 0 5.75127 0C2.5778 0 0 2.68989 0 6.00134C0 7.37843 0.446751 8.643 1.19647 9.65573C1.04755 10.4059 0.955122 11.2043 0.955122 12.0027C0.955122 18.0844 5.67425 23.0033 11.4974 23.0033C12.2625 23.0033 13.0225 22.9123 13.7466 22.7515C14.7222 23.5338 15.9341 24 17.2487 24C20.4222 24 23 21.3101 23 17.9987C23.0051 16.6269 22.5583 15.3624 21.8086 14.3496ZM11.8158 19.2525C8.44718 19.2525 5.62803 17.6879 5.62803 15.7696C5.62803 14.9123 6.09019 14.1299 7.14288 14.1299C8.74502 14.1299 8.89393 16.5358 11.6669 16.5358C12.9866 16.5358 13.839 15.925 13.839 15.1266C13.839 14.1246 13.0174 13.9692 11.6823 13.6263C8.47286 12.8011 5.63317 12.4474 5.63317 8.95378C5.63317 5.78165 8.64231 4.60817 11.2355 4.60817C14.0649 4.60817 16.9252 5.78165 16.9252 7.57669C16.9252 8.48225 16.3398 9.28064 15.3692 9.28064C13.916 9.28064 13.8698 7.4856 11.518 7.4856C10.1982 7.4856 9.36122 7.86068 9.36122 8.69123C9.36122 9.75218 10.4293 9.85934 12.9096 10.4595C15.0355 10.9578 17.5671 11.8955 17.5671 14.6175C17.5671 17.7843 14.6349 19.2525 11.8158 19.2525Z" fill="white"/>
</svg>
