<svg width="20" height="20" viewBox="0 0 20 20" fill="none" xmlns="http://www.w3.org/2000/svg">
<path d="M10.5447 12.663C10.8917 12.636 11.208 12.459 11.4133 12.1767L14.5343 7.86202C14.63 7.72969 14.6157 7.54702 14.4997 7.43102C14.3837 7.31535 14.201 7.30102 14.0687 7.39635L9.75334 10.5184C9.47201 10.723 9.29501 11.0394 9.26801 11.3864C9.24101 11.7334 9.36667 12.073 9.61234 12.3187C9.83601 12.5427 10.1377 12.6667 10.4513 12.6667C10.4823 12.6667 10.5133 12.6654 10.5447 12.663ZM9.93268 11.4384C9.94434 11.286 10.0223 11.147 10.145 11.0577L12.7773 9.15335L10.8737 11.785C10.7837 11.9087 10.6447 11.9864 10.4923 11.9984C10.3407 12.0084 10.1917 11.9557 10.0833 11.8474C9.97601 11.7397 9.92068 11.5904 9.93268 11.4384Z" fill="white"/>
<path d="M18.0113 6.52133C18.008 6.51433 18.008 6.507 18.0043 6.5C18.0003 6.49333 17.994 6.48967 17.9896 6.48333C17.6526 5.90533 17.254 5.36767 16.8013 4.88033L17.5173 4.16467L17.9886 4.636L19.4026 3.22167L17.9886 1.80767L16.5743 3.22167L17.046 3.69333L16.33 4.409C15.8426 3.95633 15.3053 3.55733 14.727 3.22033C14.7206 3.216 14.717 3.20967 14.7103 3.20567C14.7033 3.20167 14.696 3.202 14.689 3.19833C13.658 2.60433 12.4996 2.20867 11.2646 2.06367V1.66667H11.7646C12.2243 1.66667 12.598 1.293 12.598 0.833333C12.598 0.373667 12.224 0 11.7643 0H8.76432C8.30465 0 7.93098 0.373667 7.93098 0.833333C7.93098 1.293 8.30465 1.66667 8.76432 1.66667H9.26432V2.052C8.90432 2.09033 8.54498 2.149 8.18965 2.23033C8.01032 2.27133 7.89798 2.45033 7.93932 2.62967C7.98032 2.809 8.15932 2.92167 8.33865 2.88C8.64532 2.80967 8.95498 2.75667 9.26532 2.721L9.62298 2.69333C9.73232 2.685 9.83298 2.679 9.93098 2.67433V3.33333C9.93098 3.51767 10.08 3.66667 10.2643 3.66667C10.4487 3.66667 10.5977 3.51767 10.5977 3.33333V2.67667C11.8513 2.73433 13.0326 3.071 14.083 3.625L13.7543 4.194C13.6623 4.35367 13.717 4.55733 13.8763 4.64933C13.9287 4.67967 13.986 4.694 14.0426 4.694C14.158 4.694 14.27 4.63433 14.3316 4.52733L14.6593 3.95967C15.7023 4.62133 16.5883 5.50733 17.25 6.55033L16.6823 6.878C16.5233 6.97 16.4686 7.17367 16.561 7.33333C16.623 7.44033 16.7346 7.5 16.85 7.5C16.9066 7.5 16.964 7.48567 17.0163 7.45533L17.5853 7.12667C18.147 8.192 18.4846 9.39267 18.535 10.6663H17.8766C17.6923 10.6663 17.5433 10.8153 17.5433 10.9997C17.5433 11.184 17.6923 11.333 17.8766 11.333H18.535C18.4846 12.6067 18.147 13.8073 17.5853 14.8727L17.0163 14.544C16.857 14.452 16.653 14.506 16.561 14.666C16.469 14.8257 16.5236 15.0293 16.683 15.1213L17.2506 15.449C16.589 16.492 15.703 17.378 14.66 18.0397L14.3323 17.472C14.24 17.312 14.0357 17.2577 13.877 17.35C13.7173 17.442 13.6626 17.646 13.755 17.8053L14.0836 18.3743C13.0333 18.9283 11.852 19.265 10.5983 19.3227V18.6667C10.5983 18.4823 10.4493 18.3333 10.265 18.3333C10.0807 18.3333 9.93165 18.4823 9.93165 18.6667V19.3253C9.39932 19.307 8.86532 19.2403 8.33965 19.1197C8.16032 19.0767 7.98132 19.1907 7.94032 19.37C7.89898 19.5493 8.01132 19.7283 8.19065 19.7693C8.85598 19.9227 9.53565 20 10.21 20C10.2263 20 10.242 19.999 10.2583 19.9987C10.2607 19.9987 10.2623 20 10.2643 20C10.267 20 10.2693 19.9983 10.272 19.9983C11.8743 19.9873 13.3776 19.5547 14.6783 18.8073C14.6886 18.8027 14.6997 18.8003 14.7097 18.7943C14.7163 18.7903 14.72 18.784 14.7263 18.7797C16.0726 17.995 17.1976 16.8713 17.984 15.526C17.9903 15.517 17.9983 15.51 18.004 15.5C18.008 15.493 18.0076 15.4857 18.011 15.4787C18.7723 14.1587 19.21 12.63 19.21 11C19.21 9.37 18.7723 7.84133 18.0113 6.52133ZM17.9883 2.75033L18.4597 3.22167L17.9883 3.69333L17.5166 3.22167L17.9883 2.75033ZM9.93098 2.007V1H8.76432C8.67265 1 8.59765 0.925 8.59765 0.833333C8.59765 0.741667 8.67265 0.666667 8.76432 0.666667H11.7643C11.856 0.666667 11.931 0.741667 11.931 0.833333C11.931 0.925 11.856 1 11.7643 1H10.5977V2.007C10.4817 2.00233 10.371 2 10.2643 2C10.255 2 10.2443 2.00067 10.235 2.00067C10.2267 2.00067 10.2183 2 10.21 2C10.1553 2 10.1007 2.00367 10.046 2.00467C10.0073 2.00567 9.97098 2.00533 9.93098 2.007Z" fill="white"/>
<path d="M7.26431 4.66663H5.59765C5.41331 4.66663 5.26431 4.81563 5.26431 4.99996C5.26431 5.18429 5.41331 5.33329 5.59765 5.33329H7.26431C7.44864 5.33329 7.59764 5.18429 7.59764 4.99996C7.59764 4.81563 7.44864 4.66663 7.26431 4.66663Z" fill="white"/>
<path d="M7.26432 7H3.93099C3.74666 7 3.59766 7.149 3.59766 7.33333C3.59766 7.51767 3.74666 7.66667 3.93099 7.66667H7.26432C7.44866 7.66667 7.59766 7.51767 7.59766 7.33333C7.59766 7.149 7.44866 7 7.26432 7Z" fill="white"/>
<path d="M7.26433 9.33337H2.26433C2.08 9.33337 1.931 9.48237 1.931 9.66671C1.931 9.85104 2.08 10 2.26433 10H7.26433C7.44867 10 7.59767 9.85104 7.59767 9.66671C7.59767 9.48237 7.44867 9.33337 7.26433 9.33337Z" fill="white"/>
<path d="M7.26432 11.6666H0.93099C0.746656 11.6666 0.597656 11.8156 0.597656 12C0.597656 12.1843 0.746656 12.3333 0.93099 12.3333H7.26432C7.44866 12.3333 7.59766 12.1843 7.59766 12C7.59766 11.8156 7.44866 11.6666 7.26432 11.6666Z" fill="white"/>
<path d="M7.26432 14H2.93099C2.74666 14 2.59766 14.149 2.59766 14.3333C2.59766 14.5177 2.74666 14.6667 2.93099 14.6667H7.26432C7.44866 14.6667 7.59766 14.5177 7.59766 14.3333C7.59766 14.149 7.44866 14 7.26432 14Z" fill="white"/>
<path d="M7.26432 16.3334H4.93099C4.74666 16.3334 4.59766 16.4824 4.59766 16.6667C4.59766 16.851 4.74666 17 4.93099 17H7.26432C7.44866 17 7.59766 16.851 7.59766 16.6667C7.59766 16.4824 7.44866 16.3334 7.26432 16.3334Z" fill="white"/>
</svg>
