<svg width="28" height="27" viewBox="0 0 28 27" fill="none" xmlns="http://www.w3.org/2000/svg">
<g clip-path="url(#clip0)">
<path d="M14 14.2978C17.4671 14.2978 20.278 11.1254 20.278 7.21208C20.278 1.78541 17.4672 0.126465 14 0.126465C10.5327 0.126465 7.72208 1.78541 7.72208 7.21208C7.72214 11.1254 10.5328 14.2978 14 14.2978Z" fill="#8C8C87"/>
<path d="M27.8631 24.7268L24.6958 17.8467C24.5509 17.5319 24.2964 17.2707 23.9796 17.1117L19.0641 14.6443C18.9558 14.59 18.8245 14.6005 18.7271 14.6717C17.3368 15.6856 15.7022 16.2216 14 16.2216C12.2977 16.2216 10.6632 15.6856 9.27289 14.6717C9.17517 14.6005 9.04392 14.59 8.93552 14.6443L4.02039 17.1117C3.70348 17.2707 3.44926 17.5317 3.30425 17.8467L0.136943 24.7268C-0.0814241 25.2011 -0.0366695 25.7438 0.256699 26.1789C0.54993 26.6139 1.0462 26.8735 1.58428 26.8735H26.4156C26.9537 26.8735 27.4501 26.6137 27.7433 26.1788C28.0366 25.7438 28.0814 25.2009 27.8631 24.7268Z" fill="#8C8C87"/>
</g>
<defs>
<clipPath id="clip0">
<rect width="28" height="27" fill="white"/>
</clipPath>
</defs>
</svg>
