<svg width="20" height="20" viewBox="0 0 20 20" fill="none" xmlns="http://www.w3.org/2000/svg">
<g clip-path="url(#clip0)">
<path d="M19.9938 8.87822V8.87807C19.9612 8.56648 19.7997 8.27931 19.551 8.08903L18.4127 7.2028L18.8406 5.79105C18.9318 5.48984 18.894 5.16071 18.7366 4.88788C18.5792 4.6152 18.3131 4.4179 18.0065 4.34619L16.5745 4.01187L16.3917 2.55281C16.3524 2.24031 16.184 1.95497 15.9295 1.77034C15.6746 1.58494 15.351 1.51277 15.042 1.57228L13.5978 1.84923L12.8371 0.590523C12.5344 0.0895748 11.8987 -0.0996352 11.3588 0.15C11.3208 0.167547 11.2842 0.188605 11.2523 0.211188L9.99882 1.0843L8.79199 0.243689C8.53366 0.0639398 8.20911 -0.00152067 7.90118 0.0637872C7.59326 0.129095 7.32318 0.321357 7.16037 0.590828L6.40002 1.84938L4.95562 1.57228C4.64632 1.51307 4.32299 1.58525 4.06862 1.77019C3.8138 1.95528 3.64534 2.24062 3.60628 2.55281L3.42348 4.01202L1.90888 4.36557L1.83778 4.38876L1.81153 4.4002C1.2613 4.64084 0.986029 5.22586 1.15723 5.79105L1.58494 7.2028L0.397801 8.12627L0.328984 8.18608L0.309605 8.20729C-0.0888033 8.64247 -0.104367 9.30074 0.272526 9.74081L1.20194 10.8523L0.448613 12.2193L0.418553 12.2877L0.409856 12.3131C0.222019 12.8745 0.47791 13.4846 1.00495 13.7319L2.33613 14.3566L2.21147 15.8218C2.18476 16.1356 2.29035 16.4498 2.50093 16.6836C2.7115 16.9175 3.01286 17.0553 3.3278 17.0617L4.79799 17.091L5.28017 18.48C5.38332 18.7776 5.60747 19.0217 5.89495 19.1496C6.18243 19.2776 6.5137 19.281 6.80422 19.1587L8.15936 18.5876L9.22306 19.7227L9.27875 19.7723L9.30027 19.7883C9.51038 19.9435 9.75589 20.0195 9.99912 20.0195C10.3069 20.0195 10.6108 19.8977 10.8332 19.6604L11.8387 18.5876L13.194 19.1589C13.4839 19.281 13.8151 19.2776 14.1025 19.1497C14.3903 19.0217 14.6145 18.7776 14.7176 18.4802L15.1999 17.091L16.7551 17.06L16.829 17.0519L16.8555 17.0466C17.4354 16.9283 17.8356 16.4018 17.7863 15.8219L17.6618 14.3566L18.9931 13.7319C19.278 13.5982 19.4973 13.3498 19.5946 13.0503C19.6918 12.7509 19.6606 12.421 19.5086 12.1453L18.796 10.8523L19.7256 9.74081C19.9287 9.50353 20.0265 9.1895 19.9938 8.87822ZM17.6874 10.3496C17.5033 10.5671 17.4718 10.8797 17.6096 11.1295L18.4661 12.6838L16.8595 13.4377C16.599 13.5601 16.4405 13.8349 16.4647 14.1216L16.615 15.8898L14.8408 15.9252C14.5531 15.931 14.2963 16.1175 14.202 16.3894L13.62 18.0659L11.9849 17.3766C11.7197 17.265 11.4093 17.3307 11.2124 17.5408L9.99882 18.8357L8.78528 17.5407C8.65238 17.3988 8.46759 17.3228 8.27991 17.3228C8.18973 17.3228 8.09894 17.3403 8.01303 17.3766L6.37759 18.0659L5.79577 16.3899C5.70162 16.1178 5.44482 15.931 5.15688 15.9252L3.38243 15.8898L3.53273 14.1216C3.55714 13.8349 3.39845 13.5601 3.13798 13.4377L1.53153 12.6838L2.38801 11.1297C2.52595 10.8796 2.49437 10.5671 2.31004 10.3495L1.18272 9.00136L2.56395 7.92683C2.79008 7.75242 2.88621 7.45274 2.8032 7.17961L2.28868 5.48129L4.01705 5.07754C4.29705 5.01208 4.5093 4.77649 4.54531 4.49084L4.76595 2.72997L6.50912 3.06429C6.79171 3.11831 7.08133 2.98922 7.23025 2.74309L8.14792 1.22422L9.60407 2.23833C9.84028 2.40282 10.1577 2.40297 10.3937 2.23833L11.8499 1.22407L12.7677 2.74263C12.9163 2.98906 13.2065 3.11831 13.4891 3.06414L15.232 2.72982L15.4526 4.49054C15.4883 4.77603 15.7006 5.01193 15.981 5.07754L17.7093 5.48114L17.1946 7.17945C17.1117 7.4532 17.208 7.75273 17.4341 7.92698L18.8148 9.00197L17.6874 10.3496Z" fill="white"/>
<path d="M10.0611 5.05005C7.31494 5.05005 5.08074 7.2841 5.08074 10.0304C5.08074 12.7765 7.31494 15.0107 10.0611 15.0107C12.8074 15.0107 15.0416 12.7765 15.0416 10.0304C15.0416 7.2841 12.8072 5.05005 10.0611 5.05005ZM10.0611 13.8379C7.96161 13.8379 6.25338 12.1299 6.25338 10.0304C6.25338 7.93077 7.96161 6.22269 10.0611 6.22269C12.1607 6.22269 13.8688 7.93077 13.8688 10.0304C13.8688 12.1299 12.1607 13.8379 10.0611 13.8379Z" fill="white"/>
<path d="M11.4927 8.48403L9.17927 10.7973L8.55152 10.1694C8.32248 9.94049 7.95123 9.94049 7.72235 10.1694C7.49332 10.3984 7.49332 10.7697 7.72235 10.9987L8.76468 12.041C8.87912 12.1556 9.02927 12.2128 9.17927 12.2128C9.32926 12.2128 9.47941 12.1556 9.59385 12.041L12.3218 9.3132C12.5507 9.08416 12.5507 8.71292 12.3218 8.48403C12.0928 8.255 11.7215 8.255 11.4927 8.48403Z" fill="white"/>
</g>
<defs>
<clipPath id="clip0">
<rect width="20" height="20" fill="white"/>
</clipPath>
</defs>
</svg>
