<svg width="15" height="16" viewBox="0 0 15 16" fill="none" xmlns="http://www.w3.org/2000/svg">
<path d="M6.08381 0.889338L6.08997 0.86464L6.08997 11.4515L2.28268 8.12339C2.0968 7.96042 1.84499 7.87103 1.58071 7.87103C1.31643 7.87103 1.06638 7.96042 0.880064 8.12339L0.288656 8.64125C0.102777 8.8041 0 9.02109 0 9.25249C0 9.48403 0.102043 9.70115 0.287922 9.86399L6.79943 15.569C6.98604 15.7325 7.23462 15.8219 7.49905 15.8213C7.76494 15.8219 8.01367 15.7325 8.19998 15.569L14.7121 9.86399C14.8978 9.70115 15 9.48415 15 9.25249C15 9.02109 14.8977 8.8041 14.7121 8.64125L14.1207 8.12339C13.9351 7.96042 13.6872 7.87103 13.423 7.87103C13.1588 7.87103 12.9241 7.96042 12.7383 8.12339L8.90973 11.4891L8.90973 0.877503C8.90973 0.400678 8.44063 9.53674e-07 7.89665 9.53674e-07H7.06019C6.5162 9.53674e-07 6.08381 0.412512 6.08381 0.889338Z" fill="white"/>
</svg>
